<svg xmlns="http://www.w3.org/2000/svg" width="223.999" height="105.998"><path fill="#fff" d="M209.475 86.445a8.425 8.425 0 0 1-1.151 4.291 8.439 8.439 0 0 1-3.138 3.133 8.436 8.436 0 0 1-4.287 1.146 8.428 8.428 0 0 1-4.277-1.146 8.444 8.444 0 0 1-3.137-3.133 8.414 8.414 0 0 1-1.15-4.291 8.43 8.43 0 0 1 1.15-4.285 8.436 8.436 0 0 1 3.137-3.141 8.417 8.417 0 0 1 4.277-1.145c1.533 0 2.963.381 4.287 1.145a8.431 8.431 0 0 1 3.138 3.141 8.43 8.43 0 0 1 1.151 4.285zm-1.657 0c0-1.908-.676-3.537-2.026-4.889-1.351-1.35-2.98-2.025-4.888-2.025s-3.538.676-4.889 2.025c-1.351 1.352-2.025 2.98-2.025 4.889s.675 3.537 2.025 4.889c1.351 1.35 2.98 2.025 4.889 2.025 1.907 0 3.537-.676 4.888-2.025 1.351-1.352 2.026-2.98 2.026-4.889zm-10.797-4.586h4.093c1.159 0 1.998.234 2.518.701.52.469.78 1.098.78 1.883 0 .615-.199 1.146-.598 1.596-.397.451-1.024.775-1.881.979.354.135.611.277.777.428.232.209.476.52.73.932.016.031.511.916 1.486 2.654h-2.703c-.87-1.746-1.454-2.791-1.752-3.131-.297-.342-.594-.512-.892-.512-.067 0-.16.01-.278.033v3.609h-2.281v-9.172zm2.282 3.891h.98c.654 0 1.115-.107 1.383-.32.268-.215.402-.49.402-.828s-.129-.613-.385-.828c-.257-.213-.693-.32-1.311-.32h-1.07v2.296zM112.001 8.166C55.925 8.166 11.999 27.859 11.999 53c0 25.14 43.926 44.833 100.002 44.833C168.075 97.834 212 78.141 212 53S168.075 8.166 112.001 8.166zM206.797 50.5H186.4c-1.005-11.277-8.796-21.707-22.207-29.591a74.863 74.863 0 0 0-3.498-1.916c25.881 6.652 44.045 18.328 46.102 31.507zM75.259 53c0-20.259 16.482-36.741 36.742-36.741 20.257 0 36.738 16.482 36.738 36.741 0 20.257-16.481 36.738-36.738 36.738-20.26 0-36.742-16.48-36.742-36.738zm-4.918-2.5h-27.71c1.941-17.858 24.501-32.557 54.172-36.365C82.021 19.937 71.325 33.928 70.341 50.5zm0 5c.984 16.572 11.682 30.564 26.466 36.363C67.135 88.057 44.573 73.357 42.631 55.5h27.71zm83.317 0h27.71c-1.941 17.857-24.503 32.557-54.175 36.363 14.784-5.799 25.48-19.791 26.465-36.363zm0-5c-.984-16.574-11.682-30.566-26.465-36.366 12.979 1.665 24.884 5.453 34.467 11.085 11.774 6.921 18.668 15.82 19.706 25.28h-27.708zM63.717 18.89C48.666 26.614 38.763 37.864 37.603 50.5H17.202c2.068-13.249 20.415-24.978 46.515-31.61zM17.202 55.5h20.401c1.161 12.635 11.063 23.885 26.115 31.609C37.617 80.477 19.27 68.748 17.202 55.5zm143.082 31.609c15.051-7.725 24.952-18.975 26.113-31.609h20.399c-2.067 13.248-20.413 24.977-46.512 31.609zm-18.689-21.086c-1.515-5.871-6.84-10.229-13.178-10.229-.798 0-1.576.082-2.337.215.207-.973.32-1.977.32-3.009 0-1.033-.113-2.039-.32-3.01.761.133 1.539.215 2.337.215 6.338 0 11.663-4.356 13.178-10.228A32.212 32.212 0 0 1 144.333 53c0 4.635-.982 9.037-2.738 13.023zm-5.055-29.44c0 4.479-3.644 8.123-8.123 8.123s-8.123-3.644-8.123-8.123 3.644-8.123 8.123-8.123 8.123 3.644 8.123 8.123zm-8.123 24.712c4.479 0 8.123 3.643 8.123 8.123 0 4.479-3.644 8.123-8.123 8.123s-8.123-3.645-8.123-8.123c0-4.48 3.644-8.123 8.123-8.123zm-3.394-37.89c-5.872 1.514-10.229 6.839-10.229 13.178 0 .798.083 1.576.215 2.337A14.409 14.409 0 0 0 112 38.6c-1.032 0-2.037.113-3.009.32.132-.761.216-1.538.216-2.336 0-6.338-4.358-11.664-10.23-13.178 3.984-1.756 8.389-2.739 13.023-2.739s9.038.982 13.023 2.738zM117.04 53a5.04 5.04 0 1 1-10.077 0 5.04 5.04 0 0 1 10.077 0zM87.461 69.418c0-4.479 3.644-8.123 8.123-8.123 4.479 0 8.123 3.645 8.123 8.123s-3.645 8.123-8.123 8.123c-4.48 0-8.123-3.645-8.123-8.123zm8.123-24.711c-4.479 0-8.123-3.644-8.123-8.123s3.644-8.123 8.123-8.123c4.479 0 8.123 3.644 8.123 8.123s-3.644 8.123-8.123 8.123zm-13.178-4.73c1.514 5.873 6.839 10.23 13.178 10.23.797 0 1.574-.083 2.336-.216-.207.972-.32 1.977-.32 3.01 0 1.033.113 2.039.32 3.009a13.74 13.74 0 0 0-2.336-.215c-6.338 0-11.664 4.357-13.178 10.229a32.196 32.196 0 0 1-2.739-13.023c0-4.636.982-9.039 2.739-13.024zm16.572 42.619c5.872-1.514 10.229-6.84 10.229-13.178 0-.799-.084-1.576-.216-2.338.971.207 1.976.32 3.009.32s2.038-.113 3.009-.32a13.652 13.652 0 0 0-.215 2.338c0 6.338 4.357 11.662 10.229 13.178-3.985 1.756-8.388 2.738-13.022 2.738s-9.038-.982-13.023-2.738z"/></svg>