<svg viewBox="0 0 16 16" fill="none" xmlns="http://www.w3.org/2000/svg">
  <style>
      path.path-1 {
          fill: #000000;
      }

      path.path-2 {
          fill: #ffffff;
      }

      @media (prefers-color-scheme: dark) {
          path.path-1 {
              fill: #ffffff;
          }

          path.path-2 {
              fill: #000000;
          }
      }
  </style>
  <g clip-path="url(#clip0)">
    <path class="path-1" d="M15.878 3.766c-.07-.112-.22-.142-.343-.076-.051.03-.1.05-.152.08l-1.736-1.627a4.442 4.442 0 00-.685-1.095l1.1-.103c.084-.004.145-.08.144-.17a.147.147 0 00-.154-.15L12.69.749c-.054-.05-.107-.11-.152-.159-.426-.4-1.08-.338-1.464.132-.3.368-.337.886-.14 1.282L9.213 4.126 7.708 2.723a.562.562 0 00-.594-.105l-.054-.05.24-.29c.059-.069.05-.17-.012-.221-.062-.062-.156-.05-.215.018l-.855 1.053c-.059.068-.05.168.012.22.062.062.156.05.206-.02l.3-.367.032.026a.663.663 0 00.145.712l1.149 1.066-.89 1.096-.196-.177c-.06-.062-.155-.05-.214.018L2.21 11.31c-.059.068-.05.168.013.22l.194.177-.65.795c-.031.024-.835 1.662-.835 1.662a.21.21 0 00-.014.166l-.386.48.14.126.386-.48c.053.01.101 0 .155-.04 0 0 1.41-1.083 1.425-1.11l.65-.796.194.177c.063.052.155.05.205-.02L8.24 7.06c.059-.067.051-.168-.012-.22l-.195-.177.891-1.095 2.846 2.654a.562.562 0 00.794-.034c.011-.007.02-.006.022-.015l3.264-4.025a.315.315 0 00.029-.38zm-5.412 1.545l-1.124-1.05 1.697-2.09c.037.047.067.083.112.131.31.289.6.642.73 1.144-.022 1.105-.966 1.675-1.415 1.865zM14.02 4.04a4.34 4.34 0 00-.158-1.26l1.2 1.125c-.427.175-.776.226-1.042.135z" fill="#000"/>
  </g>
  <defs>
    <clipPath id="clip0">
      <path class="path-2" fill="#fff" d="M0 0h16v16H0z"/>
    </clipPath>
  </defs>
</svg>
