<?xml version="1.0" encoding="utf-8"?>
<!-- Generator: Adobe Illustrator 18.1.1, SVG Export Plug-In . SVG Version: 6.00 Build 0)  -->
<svg version="1.1" id="Layer_1" xmlns="http://www.w3.org/2000/svg" xmlns:xlink="http://www.w3.org/1999/xlink" x="0px" y="0px"
	 viewBox="54 167 720 460" enable-background="new 54 167 720 460" xml:space="preserve">
<path fill="#2A044A" d="M424,408.5c-8.4,2.4-15.4,8.5-23.4,29.7l-0.3,0.6c0.1,0.2-0.9,1-0.6,0.2c1.5-4.3,3.5-9.5,2.1-14.9
	c-1.1-4.3-6-5.5-12.7-3.6c-3.5,1-7.2,3.5-6.7,5.1c0.4,1.4,3.7,0.4,4.2,5.8c0.4,4.2-0.9,13.2-3.9,25.6c-5.7,16.1-17.7,45.7-32.4,50
	c-3.4,1-4.8-1.8-5.3-3.7c-0.7-2.8,0.1-8.2,0.7-11.1c1-4.7,9.2-39.5,10.8-45.4c3.9-14.7,8.4-15,8.2-15.7c-0.7-2.5-5.5-4.1-11.9-2.3
	c-4.3,1.2-8.8,4.8-11.8,12.6c-3.4-4.2-9.1-6.5-16.1-4.5c-24.3,7-42.1,45.8-41.8,72.2c-5.9,11.2-13.3,21.1-21.4,23.5
	c-2.6,0.7-4.5-1.4-5.3-4.2c-0.7-2.8-0.5-7,1-13.4c0.4-1.9,6.4-28.5,12-52l14.1-4.1c6.6-1.9,9.9-6.8,9.4-14.6c-0.1-0.5-0.4-1.4-1-1.2
	c-0.7,1.7-3.9,3.4-9.5,5c-5.4,1.3-8.4,2.2-9,2.4l-0.6,0.2c2.4-9.1,3.5-14.4,3.8-15.9c0.8-3.7,1-6.7,0.3-9c-0.5-2-1.8-3.5-3.4-4.4
	c5.7,0.6,11.6-0.1,16.4-1.5c66.9-19.3,65-123.4,76.9-162.7c7.1-23.1,18.4-38.5,16.9-44.2c-1.5-5.7-3.7-7.8-5.2-7.4
	c-1.1,0.3-5.8,12.8-17.8,16.5c-10.8,3.4-35.3-0.7-49,3.2c-29.4,8.5-53.9,50.7-45.2,83.3c6.6,24.8,21.6,31.8,34,28.3
	c13.4-3.9,17-15.3,14.7-23.8c-2-7.6-8.5-12.1-14.3-10.5c-5.8,1.7-9.4,7.9-7.6,14.3c0.6,2.1,1.9,4.6,4.1,6.7c0.5,0.9,0.2,1.4-0.3,1.6
	c-7.9,2.3-15.9-5.5-18.9-16.6c-5.1-19.1,0.5-56.5,35-66.5c13.2-3.8,25.4,0.6,38.4-3.2c10.2-3,14.1-7.3,14.1-7.3
	c-0.2-0.7,0.8,0.5,0.2,1.7c-12.5,17.5-23.6,39.7-28.7,67.7c-8.1,45.9-9.2,95.2-51.4,107.3c-13,3.7-20.8,0.3-22.8-7
	c-0.9-3.2,0.6-5.6,3.1-6.3c3.2-0.9,5.1,3.7,3.3,6.5c3.6,2.4,13.2-2.8,10.6-12.7c-2.1-7.8-9.1-11.5-17.8-9
	c-6.8,2-14.2,12.2-11.1,23.7c2.5,9.5,9,14.5,16.4,16.7c-1.3,0.1-2.6,0.3-4,0.7c-5.1,1.5-6.2,3.3-7.6,5.1c-1.3,1.9,3.4,0.7,3.2,6.8
	c-0.1,1.5-2.3,14.7-4.2,23c-15.2,4.1-17.5,5-19.3,11.3c-0.2,0.8-0.9,3.5-1,4.7c-0.2,1,0.3,2.9,2,1.4c0.7-0.7,1.7-1.5,4-2.1
	c1.3-0.4,10.9-2.9,10.9-2.9c-17.1,58.6-15,68.2-14.3,70.9c2.4,9,9.8,11.8,17.5,9.5c11.6-3.4,21.9-13.6,30.2-26.6
	c3.1,8.6,10.3,14.7,21.1,11.6c7.7-2.2,15.5-9.9,20.7-18.8c1.9,7.1,7.7,10.9,16.9,8.2c11.8-3.4,22.3-14.1,30.7-27.6
	c-0.4,3.6-0.4,6.9,0.4,9.8c1.1,4.1,5.2,7.7,10.9,6.1c6.3-1.8,10.1-5.1,11.1-6.4c0.5-0.6,0.7-1.4,0.6-2.1c-0.1-0.4-0.4-0.8-0.9-0.9
	c-0.7-0.3-3.4-1-3.5-4.8c-0.7-20.4,17.2-67.5,27.9-76c2.4-1.9,3.8-0.5,2.5,1.1c-5.9,7,0.5,14.6,6.5,14.3c6.5-0.3,12.5-8.4,9.9-18.1
	C437.4,410.3,431.5,406.3,424,408.5z M337.1,456.2c-1.7,8.2-6.1,26.8-7.8,34.4c-3.4,16.3-14.3,24.7-17.9,25.7
	c-5.1,1.5-8.6-1.2-10.6-8.8c-4.1-15.1,10.9-58,25.3-62.2c5.1-1.5,9.7,1.9,10.9,6.5C337.4,453.2,337.4,454.7,337.1,456.2z
	 M600.8,357.4c-8.4,2.4-15.4,8.5-23.4,29.7l-0.3,0.6c0.1,0.2-0.9,1-0.6,0.2c1.5-4.3,3.5-9.5,2.1-14.9c-1.1-4.3-6-5.5-12.7-3.6
	c-3.5,1-7.2,3.5-6.7,5.1c0.4,1.3,3.7,0.4,4.2,5.8c0.4,4.6-1.1,14.9-4.8,29c-6.5,16.6-19.8,43.6-38.4,49c-7.2,2.1-12.7-0.3-14.9-8.3
	c-1.4-5.3-1.2-9.8-0.3-15.7c25.5-6.1,43.4-30.8,39.1-46.9c-2.1-7.8-8.1-11.5-15.4-9.4c-24.2,7-42.4,47.1-41.7,73.6
	c-5.7,10.5-12.8,19.5-20.5,21.7c-2.6,0.7-4.5-1.4-5.2-4.2c-0.7-2.8-0.5-7,1-13.4c0.4-1.9,6.4-28.5,12-52l14.1-4.1
	c6.6-1.9,9.9-6.8,9.4-14.6c-0.1-0.5-0.4-1.4-1-1.2c-0.7,1.7-3.9,3.4-9.5,5c-5.4,1.3-8.4,2.2-9,2.4l-0.6,0.2
	c2.4-9.1,3.5-14.4,3.8-15.9c0.8-3.7,1-6.7,0.3-9c-1.4-5.1-6.8-6.7-13.2-4.8c-5.1,1.5-6.2,3.3-7.6,5.2c-1.3,1.9,3.4,0.7,3.2,6.7
	c-0.1,1.5-2.2,14.7-4.2,23c-15.2,4.1-17.5,5-19.3,11.3c-0.2,0.8-0.9,3.5-1,4.7c-0.2,1,0.3,2.9,2,1.4c0.7-0.7,1.7-1.5,4-2.1
	c1.3-0.4,10.9-2.9,10.9-2.9c-17.1,58.6-15,68.2-14.3,70.9c2.4,9,9.8,11.8,17.5,9.5c11.3-3.3,21.3-13,29.5-25.5
	c4.1,10.7,13.3,13.2,23.2,10.3c16.1-4.7,29.1-16.6,38.9-31.4c-0.6,4.2-0.6,8,0.2,11.2c1.1,4.1,5.2,7.7,10.9,6.1
	c6.3-1.8,10.1-5.1,11.1-6.4c0.5-0.6,0.7-1.4,0.6-2.1c-0.1-0.4-0.4-0.8-0.9-0.9c-0.7-0.3-3.4-1-3.5-4.8c-0.7-20.4,17.2-67.5,27.9-76
	c2.4-1.9,3.8-0.5,2.5,1.1c-5.9,7,0.5,14.6,6.5,14.3c6.5-0.3,12.5-8.4,9.9-18.1C614.3,359.2,608.3,355.3,600.8,357.4z M529.7,386.8
	c3.8-1.1,6,1,6.8,4c2.2,8.3-11.6,28.6-29.5,33.8C510.1,412,520.1,389.5,529.7,386.8z M228.2,511.7c-8.2-30.8-51.5-38.8-59.1-67.3
	c-4.9-18.4,7.4-38.5,33.2-45.9c17-4.9,30.5,0.8,33.7,12.5c2.4,9-1.5,14-3,14.5c-0.9,0.2-1.9-0.2-1.9-0.9c0-0.8,0.1-1.5-0.2-2.4
	c-1.2-4.6-6.4-8.3-11.7-6.8c-6.8,2-9.2,9.3-7.4,16c2.7,10.1,12.1,11.8,19.4,9.7c12.6-3.6,19.1-17.7,15.4-31.7
	c-4.5-16.8-20.2-29.3-52.4-20c-32.2,9.3-48.7,42-42.1,66.6c8.9,33.3,50.4,37.2,58.6,67.9c4.2,15.6-6,39.1-33.8,47.1
	c-24.9,7.2-39.3-3.7-42.6-15.9c-2.1-8,1.2-16.9,6.5-18.5c2.6-0.7,4.6,0.9,5.3,3.4c0.7,2.8-0.4,6.3-2.7,7.9c2.7,3.2,5.5,4.1,8.9,3.1
	c6.6-1.9,10.3-11.4,8.2-19.2c-2-7.6-9.9-13.7-19.7-10.9c-17.9,5.2-21.3,25-18.4,35.8c7.2,26.9,33.8,32,54.9,25.9
	C213,572.4,236,540.8,228.2,511.7z M373.2,295.7c0.4,1.4,3.8,0.4,4.3,5.9c0.4,5.1-2.3,17.2-6.8,33.6c-1.9,7.5-4.3,16.3-5.7,22.4
	c-1.8,7.7-2.8,14.4-1.4,19.7c1.1,4.1,5.3,7.9,11.1,6.2c6.4-1.9,10.3-5.2,11.3-6.5c0.5-0.7,0.8-1.5,0.6-2.2c-0.1-0.5-0.5-0.9-1-1
	c-0.8-0.3-3.5-1-3.6-4.9c-0.8-20.8,12.8-64.3,30.5-69.4c3-0.9,5.2,0.7,5.9,3c2.5,9.4-13.5,38-8.8,55.5c2,7.4,8.6,12.4,18.8,9.4
	c8.5-2.4,15.4-9.8,21-18.8c0,0,0,0.1,0,0.2c-0.1,1.5-0.1,3,0.2,4.1c1.4,5.1,5.8,7.2,13.1,5.1c4.7-1.4,10.3-5.4,9.8-7.3
	c-0.4-1.4-3.5-1-4.5-4.9c-0.4-1.6,0-5.9,1.2-11.7c5.2-20.8,17.2-34.4,17.4-35.2c0.1-0.3,0.4-0.1,0.5,0.1c0.6,3.8,1.5,9.2,3,14.7
	c3.9,14.7,16,31.3,28.3,27.7c23.5-6.8,36.1-58.9,39.2-67.2c1.2-3.3,0.2-8-0.2-8.6c-1.6-3.3-3.8-4.1-4.9-1.8
	c-4.9,12.6-15.8,56.8-29.9,60.8c-11.5,3.3-19.6-13.9-23.7-29.3c-1.3-4.8-2.2-13.5-2.2-13.5c7.4-11.8,17.1-26.2,27.5-29.2
	c0.6-0.2,1.1-0.1,1.3,0.6c0.1,0.5-0.2,1-0.8,1.2c-3.8,1.1-7.2,5.6-5.8,10.8c1.3,4.8,6.4,7.6,10.4,6.4c7.5-2.2,10.4-10.9,8.4-18.3
	c-1.8-6.7-8.5-11.2-16.4-8.9c-19.4,5.6-35.8,39.3-42.5,51.4c-0.3-0.2-0.3-0.4-0.5-0.9c1.7-8.9,24.1-102,25.4-108.3
	c2.8-11.9-2.8-16.5-12.2-13.8c-5.1,1.5-7.9,4-9.3,5.6c-0.5,0.6-0.8,1.2-0.7,1.7c0.5,1.8,6,0.2,4.4,10.4c-0.6,3.4-15.3,65.6-26,111
	c-6.2,18.7-16.8,47.5-25.9,50.2c-4.9,1.4-6.9-0.2-7.9-3.7c-0.2-0.9-0.3-2.1-0.1-3.7c2.7-19.1,12.5-40.7,8.1-57.2
	c-1.9-6.9-8.6-9.9-16.3-7.7c-8.5,2.5-16.2,9.9-26.3,28.9l-0.3,0.6c0.1,0.2-0.9,1-0.6,0.2c1.6-4.4,3.6-9.7,2.1-15.2
	c-1.2-4.4-6.1-5.7-12.9-3.7C376.4,291.6,372.8,294.1,373.2,295.7z M325.5,568l4.5-1.2v10.9l2.7-0.7v-10.9l4.5-1.2v-2.7l-11.8,3.2
	V568z M355.8,563l-3.6-4.8L349,559l5.5,7.3v4.9l2.7-0.7v-4.9l5.5-10.2l-3.2,0.9L355.8,563z M309.6,577.5l-8.4-5.7l-0.7,0.2v13.6
	l2.7-0.7v-8l8.3,5.7l0.8-0.2v-13.6l-2.7,0.7V577.5z M226.2,605.5l10-2.7v-2.7l-7.3,1.9v-1.4l5.4-1.5v-2.7L229,598v-4.1l7.3-1.9v-2.7
	l-10,2.7V605.5z M391.2,550.4l4.5-1.2v10.9l2.7-0.7v-10.9l4.5-1.2v-2.7l-11.8,3.2V550.4z M276.4,592.1l10-2.7v-2.7l-7.3,1.9v-1.4
	l5.5-1.5v-2.7l-5.5,1.5v-4.1l7.3-1.9v-2.7l-10,2.7V592.1z M159.1,623.5l3.1-0.8l1.2-2.6l7-1.9l1.3,1.9l3.1-0.8l-7.9-12.3
	L159.1,623.5z M164.9,617l2-4.2l2,3.2L164.9,617z M256.3,592.6l-4.8-7.4l-3.1,0.8l7.4,11.6l0.8-0.2l7.4-15.6l-3.1,0.8L256.3,592.6z
	 M208.5,602.1c-0.7,0.2-1.4-0.3-1.4-1c0-0.7,0.6-1.5,1.4-1.7c0.7-0.2,1.4,0.3,1.4,1l2.6-1.6c-0.4-1.7-2-2.6-4-2.1
	c-2.3,0.6-4.1,2.9-4.1,5.2c0,2.3,1.8,3.6,4.1,3c0.7-0.2,1.4,0.3,1.4,1c0,0.7-0.6,1.5-1.4,1.7c-0.7,0.2-1.4-0.3-1.4-1l-2.6,1.6
	c0.4,1.7,2,2.6,4,2.1c2.3-0.6,4.1-2.9,4.1-5.2C212.6,602.8,210.8,601.5,208.5,602.1z M656.4,479.4c1.3-0.4,2.5,0,3.3,0.8l0.3,0.3
	l2.2-2.2l-0.3-0.3c-1.2-1.3-3.2-1.8-5.4-1.3c-3.8,1-6.8,4.9-6.8,8.6c0,3.8,3.1,6,6.8,5c2.2-0.6,4.2-2.2,5.4-4.2l0.3-0.4l-2.2-1.1
	l-0.3,0.4c-0.7,1.2-1.9,2.1-3.3,2.5c-2.3,0.6-4.1-0.7-4.1-3C652.3,482.3,654.1,480,656.4,479.4z M674.2,474.6l4.5-1.2v10.9l2.7-0.7
	v-10.9l4.5-1.2v-2.7l-11.8,3.2L674.2,474.6L674.2,474.6z M585.3,495.7c-3.8,1-6.8,4.9-6.8,8.6c0,3.8,3.1,6,6.8,5
	c3.8-1,6.8-4.9,6.8-8.6C592.1,496.9,589.1,494.7,585.3,495.7z M585.3,506.6c-2.3,0.6-4.1-0.7-4.1-3c0-2.3,1.8-4.6,4.1-5.2
	c2.3-0.6,4.1,0.7,4.1,3C589.4,503.7,587.6,506,585.3,506.6z M566,505.9c0-2.8-2.2-4.4-5-3.7l-5,1.3v13.6l2.7-0.7v-3.6l2.1-0.6l2.4,3
	l3.2-0.9l-2.9-3.6C565,509.5,566,507.7,566,505.9z M561,509.5l-2.3,0.6v-4.5l2.3-0.6c1.3-0.3,2.3,0.4,2.3,1.7
	C563.2,507.9,562.2,509.1,561,509.5z M627,498.1l10-2.7v-2.7l-7.3,1.9v-1.4l5.5-1.5v-2.7l-5.5,1.5v-4.1l7.3-1.9v-2.7l-10,2.7V498.1z
	 M609.9,497.7c0,1.3-1,2.5-2.3,2.9c-0.7,0.2-1.4,0-1.8-0.4l-0.3-0.3l-2.2,2.2l0.3,0.3c0.9,0.9,2.3,1.3,4,0.9c2.8-0.7,5-3.6,5-6.3
	v-8.6l-2.7,0.7L609.9,497.7L609.9,497.7z M425.2,545.4l-6.4,1.7v-6.8l-2.7,0.7v13.6l2.7-0.7v-4.1l6.4-1.7v4.1l2.7-0.7v-13.6
	l-2.7,0.7V545.4z M537.9,508.4l-5,1.3v13.6l2.7-0.7V519l2.3-0.6c2.8-0.7,5-3.6,5-6.3C542.9,509.3,540.6,507.7,537.9,508.4z
	 M537.9,515.7l-2.3,0.6v-4.5l2.3-0.6c1.3-0.3,2.3,0.4,2.3,1.7C540.1,514,539.1,515.3,537.9,515.7z M452.4,536.3c0-2.8-2.2-4.4-5-3.7
	l-5,1.3v13.6l2.7-0.7v-3.6l2.1-0.6l2.4,3l3.3-0.9l-2.9-3.6C451.5,539.9,452.4,538.1,452.4,536.3z M447.4,539.9l-2.3,0.6V536l2.3-0.6
	c1.3-0.3,2.3,0.4,2.3,1.7C449.7,538.3,448.7,539.6,447.4,539.9z M466.4,541.2l10-2.7v-2.7l-7.3,1.9v-1.4l5.5-1.5v-2.7l-5.5,1.5v-4.1
	l7.3-1.9v-2.7l-10,2.7V541.2z M490.5,534.7l10-2.7v-2.7l-7.3,1.9v-1.4l5.5-1.5v-2.7l-5.5,1.5v-4.1l7.3-1.9v-2.7l-10,2.7V534.7z
	 M763.9,301.1c-1-1-2.7-1-3.9-0.1c-0.5,0.4-1,0.7-1.5,1.1l-22.4-13c-2.9-3.9-6.3-7.1-9.8-9.7l11.8-3.2c0.9-0.2,1.4-1.1,1.2-2
	c-0.2-0.9-1.1-1.4-2-1.2l-14.6,3.9c-0.7-0.4-1.4-0.9-2-1.3c-5.5-3.2-12.5-1.3-15.7,4.2c-2.5,4.3-1.8,9.6,1.2,13.2l-14.3,24.8
	l-19.4-11.2c-2.1-1.2-4.7-1.1-6.7,0.1l-0.7-0.4l2-3.4c0.5-0.8,0.2-1.8-0.6-2.2c-0.8-0.5-1.8-0.2-2.3,0.6l-7.1,12.3
	c-0.5,0.8-0.2,1.8,0.6,2.2c0.8,0.5,1.8,0.2,2.2-0.6l2.5-4.3l0.4,0.2c-0.5,2.7,0.7,5.5,3.1,6.9l14.8,8.5l-7.4,12.8l-2.5-1.4
	c-0.8-0.5-1.8-0.2-2.3,0.6l-37.8,65.5c-0.5,0.8-0.2,1.8,0.6,2.2l2.5,1.4l-5.4,9.3c-0.3,0.3-5.6,18.4-5.6,18.4
	c-0.2,0.6-0.1,1.2,0.2,1.7l-3.2,5.6l1.8,1l3.2-5.6c0.6,0,1.1-0.2,1.6-0.7c0,0,13.1-13.7,13.2-14l5.4-9.3l2.5,1.4
	c0.8,0.4,1.8,0.2,2.2-0.6l37.8-65.5c0.5-0.8,0.2-1.8-0.6-2.2l-2.5-1.4l7.4-12.8l36.7,21.2c3,1.7,6.7,0.8,8.6-1.9
	c0.1-0.1,0.2-0.1,0.2-0.2l27.1-47C765.2,303.8,765,302.1,763.9,301.1z M708.1,327.3l-14.5-8.4l14.1-24.4c0.5,0.4,0.9,0.7,1.5,1.1
	c4,2.3,7.9,5.3,10.4,10.1C721.7,316.9,712.6,324.5,708.1,327.3z M744.2,307.5c-0.9-4.6-2.4-8.8-4.4-12.4l15.5,9
	C751,306.7,747.3,307.9,744.2,307.5z M582,259.1c1.2,0.6,2.3-0.3,3.2-0.8c2.2-1.3,44.2-27.8,44.2-27.8c3.1-2,5.5-0.6,5.4,3.1
	c0,0-0.1,3.6-0.3,8.7c-0.1,2.2-0.1,4.5,2.1,5.7c2,1.1,3.8,0.3,5.5-0.9c8.4-5.8,56.4-42.2,56.4-42.2c2.9-2.2,2.7-2.5-0.5-0.7
	l-48.9,28.7c-3.1,1.9-5.6,0.4-5.4-3.3c0,0,0.2-3.6,0.4-8.7c0.1-2.2,0.4-4.6-1.6-6.1c-1.6-1.3-3.7-1.2-5.4-0.1
	c-4.2,2.8-46.7,34-46.7,34c-2.9,2.2-5.3,0.9-5.2-2.7l0.1-13c0-3.7-0.4-3.7-1-0.1c0,0-2.1,13.8-3.6,24
	C580.8,257.8,581.2,258.7,582,259.1z M688.1,234.4c1.1,2.2,3.8,3.1,6,1.9c2.3-1.1,40.7-20.9,40.7-20.9c4.3-2.2,4.1-2.9-0.6-1.4
	c0,0-42,13.3-44.2,14.4C687.9,229.5,687,232.2,688.1,234.4z M164,375.5c2.1,0.2,4,0,5.2-2c1.3-2.2,0.1-4.1-1.1-6
	c-2.7-4.4-4.6-7.4-4.6-7.4c-1.9-3.1-0.5-5.5,3.1-5.4c0,0,49.6,1.9,52.2,2c1.1,0,2.5,0.2,3.2-0.9c0.5-0.7,0.4-1.7-0.1-2.4
	c-6.3-8.1-15.1-19-15.1-19c-2.3-2.9-2.7-2.6-0.8,0.6l6.6,11.2c1.9,3.1,0.5,5.4-3.2,4.9c0,0-52.4-5.9-57.5-6.1
	c-2-0.1-3.8,0.9-4.6,2.8c-0.9,2.3,0.5,4.2,1.7,6.1c2.7,4.3,4.7,7.3,4.7,7.3c2,3.1,0.6,5.5-3,5.5l-56.7-0.4c-3.7,0-3.7,0.4-0.1,0.8
	C94,367.2,153.8,374.6,164,375.5z M113.1,383.2c-2.4,0.1-45.5,9.6-45.5,9.6c-4.8,1.1-4.7,1.7,0.2,1.5c0,0,43.2-2,45.7-2.2
	c2.5-0.2,4.4-2.2,4.2-4.7C117.7,385,115.6,383.1,113.1,383.2z"/>
</svg>
